<svg width="139" height="139" viewBox="0 0 139 139" fill="none" xmlns="http://www.w3.org/2000/svg">
<path d="M66 106C66 97.2308 66 73 66 73C66 73 42.4562 73 33 73C14.7746 73 0 87.7746 0 106C0 124.225 14.7746 139 33 139C51.2254 139 66 124.225 66 106Z" fill="white"/>
<path d="M66 33C66 41.7692 66 66 66 66C66 66 42.4562 66 33 66C14.7746 66 0 51.2254 0 33C0 14.7746 14.7746 0 33 0C51.2254 0 66 14.7746 66 33Z" fill="white"/>
<path d="M106 73C97.2308 73 73 73 73 73C73 73 73 96.5438 73 106C73 124.225 87.7746 139 106 139C124.225 139 139 124.225 139 106C139 87.7746 124.225 73 106 73Z" fill="white"/>
<path d="M73 33C73 41.7692 73 66 73 66C73 66 96.5438 66 106 66C124.225 66 139 51.2254 139 33C139 14.7746 124.225 0 106 0C87.7746 0 73 14.7746 73 33Z" fill="white"/>
</svg>
