<svg width="577" height="139" viewBox="0 0 577 139" fill="none" xmlns="http://www.w3.org/2000/svg">
<path d="M66 106C66 97.2308 66 73 66 73C66 73 42.4562 73 33 73C14.7746 73 0 87.7746 0 106C0 124.225 14.7746 139 33 139C51.2254 139 66 124.225 66 106Z" fill="#35654F"/>
<path d="M66 33C66 41.7692 66 66 66 66C66 66 42.4562 66 33 66C14.7746 66 0 51.2254 0 33C0 14.7746 14.7746 0 33 0C51.2254 0 66 14.7746 66 33Z" fill="#35654F"/>
<path d="M106 73C97.2308 73 73 73 73 73C73 73 73 96.5438 73 106C73 124.225 87.7746 139 106 139C124.225 139 139 124.225 139 106C139 87.7746 124.225 73 106 73Z" fill="#35654F"/>
<path d="M73 33C73 41.7692 73 66 73 66C73 66 96.5438 66 106 66C124.225 66 139 51.2254 139 33C139 14.7746 124.225 0 106 0C87.7746 0 73 14.7746 73 33Z" fill="#35654F"/>
<path d="M185.317 112C182.677 112 180.637 111.32 179.197 109.96C177.837 108.52 177.157 106.48 177.157 103.84V35.56C177.157 32.92 177.837 30.92 179.197 29.56C180.637 28.12 182.677 27.4 185.317 27.4H214.117C220.037 27.4 225.077 28.28 229.237 30.04C233.397 31.8 236.557 34.32 238.717 37.6C240.957 40.88 242.077 44.8 242.077 49.36C242.077 54.48 240.597 58.8 237.637 62.32C234.677 65.84 230.637 68.2 225.517 69.4V67.6C231.437 68.48 236.037 70.72 239.317 74.32C242.597 77.92 244.237 82.6 244.237 88.36C244.237 95.88 241.677 101.72 236.557 105.88C231.517 109.96 224.477 112 215.437 112H185.317ZM191.917 100.36H213.517C218.957 100.36 222.957 99.32 225.517 97.24C228.077 95.08 229.357 91.88 229.357 87.64C229.357 83.32 228.077 80.12 225.517 78.04C222.957 75.96 218.957 74.92 213.517 74.92H191.917V100.36ZM191.917 63.28H211.477C216.757 63.28 220.677 62.28 223.237 60.28C225.877 58.2 227.197 55.16 227.197 51.16C227.197 47.16 225.877 44.16 223.237 42.16C220.677 40.08 216.757 39.04 211.477 39.04H191.917V63.28ZM285.934 113.2C279.294 113.2 273.574 111.96 268.774 109.48C263.974 107 260.254 103.48 257.614 98.92C255.054 94.36 253.774 88.96 253.774 82.72C253.774 76.64 255.014 71.32 257.494 66.76C260.054 62.2 263.534 58.64 267.934 56.08C272.414 53.44 277.494 52.12 283.174 52.12C287.334 52.12 291.054 52.8 294.334 54.16C297.694 55.52 300.534 57.48 302.854 60.04C305.254 62.6 307.054 65.72 308.254 69.4C309.534 73 310.174 77.08 310.174 81.64C310.174 83.08 309.654 84.2 308.614 85C307.654 85.72 306.254 86.08 304.414 86.08H265.894V77.44H299.614L297.694 79.24C297.694 75.56 297.134 72.48 296.014 70C294.974 67.52 293.414 65.64 291.334 64.36C289.334 63 286.814 62.32 283.774 62.32C280.414 62.32 277.534 63.12 275.134 64.72C272.814 66.24 271.014 68.44 269.734 71.32C268.534 74.12 267.934 77.48 267.934 81.4V82.24C267.934 88.8 269.454 93.72 272.494 97C275.614 100.2 280.174 101.8 286.174 101.8C288.254 101.8 290.574 101.56 293.134 101.08C295.774 100.52 298.254 99.6 300.574 98.32C302.254 97.36 303.734 96.96 305.014 97.12C306.294 97.2 307.294 97.64 308.014 98.44C308.814 99.24 309.294 100.24 309.454 101.44C309.614 102.56 309.374 103.72 308.734 104.92C308.174 106.12 307.174 107.16 305.734 108.04C302.934 109.8 299.694 111.12 296.014 112C292.414 112.8 289.054 113.2 285.934 113.2ZM328.173 112.96C325.773 112.96 323.933 112.32 322.653 111.04C321.373 109.68 320.733 107.76 320.733 105.28V59.92C320.733 57.44 321.373 55.56 322.653 54.28C323.933 53 325.733 52.36 328.053 52.36C330.373 52.36 332.173 53 333.453 54.28C334.733 55.56 335.373 57.44 335.373 59.92V68.08L334.053 65.08C335.813 60.84 338.533 57.64 342.213 55.48C345.973 53.24 350.213 52.12 354.933 52.12C359.653 52.12 363.533 53 366.573 54.76C369.613 56.52 371.893 59.2 373.413 62.8C374.933 66.32 375.693 70.8 375.693 76.24V105.28C375.693 107.76 375.053 109.68 373.773 111.04C372.493 112.32 370.653 112.96 368.253 112.96C365.853 112.96 363.973 112.32 362.613 111.04C361.333 109.68 360.693 107.76 360.693 105.28V76.96C360.693 72.4 359.813 69.08 358.053 67C356.373 64.92 353.733 63.88 350.133 63.88C345.733 63.88 342.213 65.28 339.573 68.08C337.013 70.8 335.733 74.44 335.733 79V105.28C335.733 110.4 333.213 112.96 328.173 112.96ZM420.209 113.2C416.689 113.2 413.169 112.92 409.649 112.36C406.129 111.88 402.809 111.12 399.689 110.08C396.569 108.96 393.769 107.6 391.289 106C389.849 105.04 388.849 103.88 388.289 102.52C387.729 101.16 387.529 99.84 387.689 98.56C387.929 97.2 388.449 96.04 389.249 95.08C390.129 94.04 391.209 93.4 392.489 93.16C393.769 92.92 395.169 93.28 396.689 94.24C400.209 96.32 403.929 97.84 407.849 98.8C411.769 99.76 415.889 100.24 420.209 100.24C426.529 100.24 431.129 99.2 434.009 97.12C436.889 94.96 438.329 92.2 438.329 88.84C438.329 86.04 437.289 83.84 435.209 82.24C433.209 80.64 429.729 79.32 424.769 78.28L411.569 75.52C403.969 73.92 398.289 71.24 394.529 67.48C390.849 63.64 389.009 58.6 389.009 52.36C389.009 48.44 389.809 44.88 391.409 41.68C393.009 38.48 395.249 35.72 398.129 33.4C401.089 31.08 404.569 29.32 408.569 28.12C412.649 26.84 417.129 26.2 422.009 26.2C426.809 26.2 431.369 26.8 435.689 28C440.009 29.2 443.889 30.96 447.329 33.28C448.609 34.16 449.449 35.24 449.849 36.52C450.329 37.8 450.449 39.08 450.209 40.36C449.969 41.56 449.409 42.6 448.529 43.48C447.649 44.36 446.529 44.88 445.169 45.04C443.889 45.2 442.409 44.8 440.729 43.84C437.769 42.16 434.769 40.96 431.729 40.24C428.689 39.52 425.409 39.16 421.889 39.16C418.209 39.16 415.049 39.68 412.409 40.72C409.769 41.76 407.729 43.24 406.289 45.16C404.929 47 404.249 49.2 404.249 51.76C404.249 54.64 405.209 56.96 407.129 58.72C409.049 60.4 412.329 61.72 416.969 62.68L430.049 65.44C437.969 67.12 443.849 69.76 447.689 73.36C451.609 76.96 453.569 81.76 453.569 87.76C453.569 91.6 452.769 95.08 451.169 98.2C449.649 101.32 447.409 104 444.449 106.24C441.569 108.48 438.089 110.2 434.009 111.4C429.929 112.6 425.329 113.2 420.209 113.2ZM483.312 113.2C479.072 113.2 475.272 112.4 471.912 110.8C468.632 109.12 466.032 106.88 464.112 104.08C462.272 101.28 461.352 98.12 461.352 94.6C461.352 90.28 462.472 86.88 464.712 84.4C466.952 81.84 470.592 80 475.632 78.88C480.672 77.76 487.432 77.2 495.912 77.2H501.912V85.84H496.032C491.072 85.84 487.112 86.08 484.152 86.56C481.192 87.04 479.072 87.88 477.792 89.08C476.592 90.2 475.992 91.8 475.992 93.88C475.992 96.52 476.912 98.68 478.752 100.36C480.592 102.04 483.152 102.88 486.432 102.88C489.072 102.88 491.392 102.28 493.392 101.08C495.472 99.8 497.112 98.08 498.312 95.92C499.512 93.76 500.112 91.28 500.112 88.48V74.68C500.112 70.68 499.232 67.8 497.472 66.04C495.712 64.28 492.752 63.4 488.592 63.4C486.272 63.4 483.752 63.68 481.032 64.24C478.392 64.8 475.592 65.76 472.632 67.12C471.112 67.84 469.752 68.04 468.552 67.72C467.432 67.4 466.552 66.76 465.912 65.8C465.272 64.76 464.952 63.64 464.952 62.44C464.952 61.24 465.272 60.08 465.912 58.96C466.552 57.76 467.632 56.88 469.152 56.32C472.832 54.8 476.352 53.72 479.712 53.08C483.152 52.44 486.272 52.12 489.072 52.12C494.832 52.12 499.552 53 503.232 54.76C506.992 56.52 509.792 59.2 511.632 62.8C513.472 66.32 514.392 70.88 514.392 76.48V105.28C514.392 107.76 513.792 109.68 512.592 111.04C511.392 112.32 509.672 112.96 507.432 112.96C505.192 112.96 503.432 112.32 502.152 111.04C500.952 109.68 500.352 107.76 500.352 105.28V99.52H501.312C500.752 102.32 499.632 104.76 497.952 106.84C496.352 108.84 494.312 110.4 491.832 111.52C489.352 112.64 486.512 113.2 483.312 113.2ZM535.737 112.84C533.337 112.84 531.497 112.12 530.217 110.68C528.937 109.24 528.297 107.24 528.297 104.68V60.64C528.297 58 528.937 56 530.217 54.64C531.497 53.2 533.337 52.48 535.737 52.48C538.137 52.48 539.977 53.2 541.257 54.64C542.617 56 543.297 58 543.297 60.64V104.68C543.297 107.24 542.657 109.24 541.377 110.68C540.097 112.12 538.217 112.84 535.737 112.84ZM535.737 41.32C532.937 41.32 530.737 40.64 529.137 39.28C527.617 37.84 526.857 35.88 526.857 33.4C526.857 30.84 527.617 28.88 529.137 27.52C530.737 26.16 532.937 25.48 535.737 25.48C538.617 25.48 540.817 26.16 542.337 27.52C543.857 28.88 544.617 30.84 544.617 33.4C544.617 35.88 543.857 37.84 542.337 39.28C540.817 40.64 538.617 41.32 535.737 41.32Z" fill="#35654F"/>
</svg>
